PathFileType	4	(X/Y/Z)	TVC_58_BWA_05_walk_RCNL2025.trc
DataRate	CameraRate	NumFrames	NumMarkers	Units	OrigDataRate	OrigDataStartFrame	OrigNumFrames
100	100	12	27	mm	100	184	366
Frame#	Time	R_Shoulder			L_Shoulder			C7			J_Notch			R_Elbow			L_Elbow			R_Wrist			L_Wrist			R_Asis			L_Asis			R_Psis			L_Psis			Sacral			Thoracic			Sternum			R_Thigh_Lateral			R_Knee_Lateral			R_Shank_Lateral			R_Ankle_Lateral			R_Heel			R_Toe			L_Thigh_Lateral			L_Knee_Lateral			L_Shank_Lateral			L_Ankle_Lateral			L_Heel			L_Toe		
		X1	Y1	Z1	X2	Y2	Z2	X3	Y3	Z3	X4	Y4	Z4	X5	Y5	Z5	X6	Y6	Z6	X7	Y7	Z7	X8	Y8	Z8	X9	Y9	Z9	X10	Y10	Z10	X11	Y11	Z11	X12	Y12	Z12	X13	Y13	Z13	X14	Y14	Z14	X15	Y15	Z15	X16	Y16	Z16	X17	Y17	Z17	X18	Y18	Z18	X19	Y19	Z19	X20	Y20	Z20	X21	Y21	Z21	X22	Y22	Z22	X23	Y23	Z23	X24	Y24	Z24	X25	Y25	Z25	X26	Y26	Z26	X27	Y27	Z27
184	1.83000000	-502.776154	1330.059448	397.590729	-468.996826	1349.502441	42.706181	-541.488159	1411.497681	209.158508	-401.904327	1308.607178	225.895187	-575.600037	1014.716370	450.921417	-509.623260	1032.063843	-41.662064	-511.575165	775.390808	496.523819	-398.251007	808.890656	-87.019924	-377.587463	905.346069	355.534302	-379.315857	903.050293	43.323677	-607.625671	932.819031	261.523102	-610.579834	935.341553	150.107285	-609.102753	934.080292	205.815193	-599.769348	1105.832642	199.219513	-304.708466	1078.303711	213.752945	-361.376648	700.275024	441.043518	-265.702332	492.699097	357.223358	-246.007660	299.225800	411.246246	-262.380859	83.465897	337.831390	-318.451355	65.180786	289.067413	-136.617844	75.386940	299.394592	-470.299225	659.489075	-29.099119	-465.441559	456.166260	83.972511	-517.458496	271.799927	36.000622	-596.422913	62.592144	132.377350	-645.469360	61.560455	179.507980	-463.621338	43.204250	167.652313
185	1.84000000	-494.311737	1328.758911	398.228455	-460.942749	1348.380371	43.278286	-533.227966	1410.305176	209.881912	-393.596832	1307.398682	226.397354	-569.230896	1013.817749	451.008789	-500.746674	1030.639893	-40.760223	-507.038300	774.032562	496.639969	-388.997040	807.735565	-86.378273	-368.693542	903.986511	355.698242	-371.761322	901.775024	43.746712	-599.292603	931.735413	262.894623	-602.751709	934.477722	151.654678	-601.022156	933.106567	207.274651	-591.621887	1104.629272	200.178024	-296.143036	1076.996948	213.611557	-354.110870	698.774414	442.176300	-259.346344	490.859344	358.698669	-232.430756	299.290527	412.144958	-238.512878	82.382591	337.110321	-293.835815	62.254398	288.107971	-111.972809	79.662086	298.816254	-464.547455	658.913147	-28.918844	-461.871979	455.397705	84.129433	-515.245239	271.422852	35.741955	-596.252747	62.807232	132.280899	-645.259583	62.085663	179.415482	-463.621490	43.148090	167.641632
186	1.85000000	-485.747528	1327.351440	398.931213	-452.976562	1347.125610	43.882011	-524.985413	1409.008911	210.673050	-385.267334	1306.130127	226.922256	-562.554504	1012.779846	451.136932	-491.957062	1029.056030	-39.748039	-502.352966	772.533173	496.772400	-379.847092	806.446960	-85.697292	-359.789368	902.512024	355.994690	-364.085236	900.522766	44.165192	-590.845032	930.535828	264.280457	-594.825317	933.517212	153.290085	-592.835175	932.026520	208.785271	-583.395630	1103.303833	201.226593	-287.492065	1075.650513	213.489243	-346.810150	697.338196	443.353363	-252.749908	489.098053	360.170013	-220.698364	298.997559	413.164734	-216.991562	81.713974	336.060181	-271.403320	60.155437	286.570190	-89.767715	83.558136	298.407257	-458.669373	658.320496	-28.753136	-458.100800	454.588287	84.319756	-512.737244	271.025177	35.635033	-596.067017	63.053635	132.150803	-645.028015	62.668503	179.291840	-463.618500	43.101841	167.614197
187	1.86000000	-477.094513	1325.852051	399.701904	-445.086853	1345.753540	44.523327	-516.759521	1407.625366	211.532578	-376.917084	1304.815918	227.478378	-555.562927	1011.610779	451.313812	-483.255432	1027.333984	-38.633339	-497.503021	770.906403	496.931198	-370.801392	805.043152	-84.967812	-350.876770	900.946716	356.430695	-356.279999	899.290466	44.588051	-582.283203	929.238098	265.671570	-586.788879	932.461548	154.990417	-584.536041	930.849823	210.330994	-575.089661	1101.873291	202.355988	-278.764679	1074.284180	213.399948	-339.448853	696.019897	444.561035	-245.832565	487.484802	361.518066	-210.619354	298.171936	414.166168	-197.996124	81.245087	334.725922	-251.386902	58.676643	284.522552	-70.159363	86.762985	298.170685	-452.662933	657.685425	-28.579817	-454.105591	453.729279	84.573669	-510.068695	270.673004	35.670021	-595.866943	63.334560	131.999268	-644.775879	63.311153	179.148788	-463.611664	43.065144	167.569962
188	1.87000000	-468.365601	1324.277832	400.542999	-437.260010	1344.283203	45.208645	-508.549011	1406.173584	212.460876	-368.547455	1303.473389	228.074463	-548.250916	1010.321716	451.547699	-474.644806	1025.498657	-37.422920	-492.469650	769.169403	497.126297	-361.861755	803.545074	-84.180687	-341.952393	899.318665	357.010590	-348.334442	898.065369	45.031052	-573.608948	927.863586	267.058319	-578.630798	931.315430	156.728210	-576.119873	929.589508	211.893265	-566.704102	1100.357666	203.555969	-269.967010	1072.915894	213.361038	-332.009644	694.833557	445.786926	-238.551987	486.053497	362.636536	-201.959183	296.741669	415.005524	-181.612503	80.782944	333.168121	-233.937637	57.609592	282.071228	-53.235382	89.010941	298.082611	-446.517761	656.981567	-28.370588	-449.863831	452.811981	84.922142	-507.349609	270.418060	35.806763	-595.652771	63.653595	131.841019	-644.505188	64.016975	179.001236	-463.600098	43.037861	167.510147
189	1.88000000	-459.575043	1322.648926	401.456329	-429.480743	1342.737305	45.944489	-500.352448	1404.675537	213.457993	-360.160126	1302.121460	228.719254	-540.616089	1008.927124	451.846863	-466.129578	1023.577637	-36.122498	-487.231613	767.342651	497.367325	-353.031647	801.976196	-83.327374	-333.008423	897.659790	357.735077	-340.234924	896.828125	45.514835	-564.825928	926.436279	268.430634	-570.340271	930.087341	158.472809	-567.583099	928.261810	213.451721	-558.240234	1098.780029	204.815659	-261.102264	1071.561401	213.392776	-324.484283	693.745361	447.020386	-230.905777	484.800232	363.453644	-194.497665	294.712067	415.565582	-167.825119	80.177025	331.457703	-219.112000	56.767761	279.351654	-39.000454	90.107697	298.088776	-440.212799	656.183411	-28.092607	-445.352997	451.829071	85.394318	-504.627289	270.277100	36.001560	-595.422974	64.015610	131.692261	-644.217834	64.792061	178.866302	-463.582275	43.020363	167.437103
190	1.89000000	-450.737976	1320.987305	402.443085	-421.732605	1341.141846	46.737171	-492.168030	1403.155029	214.523636	-351.756744	1300.781616	229.421112	-532.659363	1007.445007	452.219299	-457.715057	1021.601440	-34.736786	-481.765320	765.449921	497.663315	-344.316101	800.362152	-82.400494	-324.034088	896.006042	358.600555	-331.966583	895.555725	46.062965	-555.939758	924.982361	269.778381	-561.908325	928.789062	160.191818	-558.924042	926.885712	214.985100	-549.700684	1097.165894	206.123795	-252.171402	1070.235352	213.517227	-316.871490	692.676941	448.251556	-222.926361	483.688416	363.945343	-188.038589	292.136353	415.771820	-156.516205	79.333366	329.669922	-206.864853	56.006592	276.516113	-27.365801	89.947830	298.106781	-433.715698	655.268005	-27.710686	-440.550751	450.775848	86.014755	-501.878754	270.219604	36.236252	-595.174255	64.428093	131.569519	-643.915100	65.646896	178.762146	-463.555145	43.013592	167.353882
191	1.90000000	-441.869904	1319.317749	403.503571	-413.998535	1339.526611	47.592487	-483.993866	1401.638062	215.657104	-343.339172	1299.476807	230.187744	-524.385437	1005.896790	452.672302	-449.406647	1019.603455	-33.269600	-476.045273	763.517792	498.022598	-335.721542	798.730469	-81.394352	-315.017303	894.396301	359.598785	-323.515381	894.226257	46.700043	-546.957642	923.529297	271.091736	-553.328064	927.435669	161.852875	-550.142853	925.482483	216.472305	-541.089233	1095.543213	207.469223	-243.174011	1068.951416	213.756744	-309.171906	691.523743	449.469055	-214.668808	482.662201	364.136566	-182.377731	289.104034	415.594299	-147.472839	78.220245	327.878571	-197.049316	55.237335	273.719208	-18.144228	88.523338	298.035370	-426.984894	654.217773	-27.190197	-435.434296	449.651642	86.800629	-499.032349	270.172546	36.533508	-594.901367	64.902954	131.488327	-643.596008	66.598274	178.706543	-463.513702	43.018871	167.263901
192	1.91000000	-432.986023	1317.666992	404.637299	-406.261658	1337.923828	48.515404	-475.827911	1400.151978	216.857269	-334.909363	1298.231445	231.025787	-515.802917	1004.307434	453.212341	-441.209259	1017.619629	-31.724077	-470.044449	761.575562	498.452621	-327.255615	797.110382	-80.305344	-305.946594	892.871399	360.716858	-314.869934	892.823242	47.450146	-537.888550	922.105164	272.361786	-544.595459	926.045227	163.425522	-541.242004	924.075195	217.893654	-532.411255	1093.941162	208.841171	-234.109390	1067.724487	214.132141	-301.381561	690.186340	450.657684	-206.195511	481.665314	364.090302	-177.257324	285.750793	415.040314	-140.402054	76.865311	326.151184	-189.425949	54.431965	271.103973	-11.053770	85.923439	297.771027	-419.973267	653.023254	-26.500427	-429.980042	448.460602	87.759285	-495.997559	270.041931	36.949177	-594.597473	65.458488	131.462021	-643.255981	67.671043	178.715271	-463.450226	43.037491	167.170532
193	1.92000000	-424.100830	1316.063354	405.842621	-398.505920	1336.368774	49.509800	-467.668243	1398.724609	218.122620	-326.469299	1297.070679	231.940582	-506.924683	1002.704895	453.844574	-433.126556	1015.688416	-30.103033	-463.734818	759.654602	498.959717	-318.926941	795.532471	-79.132263	-296.812927	891.473267	361.937775	-306.023315	891.340149	48.335331	-528.742981	920.738037	273.581085	-535.709534	924.638306	164.883194	-532.226257	922.688171	219.232140	-523.673035	1092.390259	210.229568	-224.977890	1066.571045	214.660904	-293.487457	688.604736	451.799225	-197.562042	480.659576	363.890930	-172.340073	282.273865	414.146973	-134.955032	75.344460	324.546051	-183.682205	53.618557	268.790100	-5.733528	82.326088	297.228119	-412.633301	651.685974	-25.617868	-424.162445	447.212402	88.886459	-492.693390	269.744843	37.548462	-594.253418	66.121223	131.500397	-642.884583	68.899651	178.800461	-463.354340	43.070175	167.077072
194	1.93000000	-415.227509	1314.537109	407.117004	-390.716827	1334.898193	50.578281	-459.512878	1397.384155	219.451126	-318.021271	1296.019775	232.935867	-497.767761	1001.120056	454.572754	-425.160400	1013.850220	-28.409382	-457.087967	757.787872	499.549011	-310.744644	794.028015	-77.876453	-287.611176	890.243347	363.241547	-296.974548	889.783813	49.374245	-519.532837	919.455261	274.744171	-526.672729	923.237610	166.205048	-523.102783	921.346436	220.474609	-514.882202	1090.920654	211.625488	-215.782089	1065.511841	215.355438	-285.465271	686.787048	452.876587	-188.806717	479.639099	363.628052	-167.221375	278.933807	412.978149	-130.758728	73.764061	323.110840	-179.460907	52.866798	266.865692	-1.773702	77.981239	296.358704	-404.922546	650.221191	-24.529234	-417.952881	445.922180	90.165161	-489.068085	269.240662	38.382385	-593.856934	66.927086	131.608383	-642.464050	70.329224	178.969360	-463.213501	43.116325	166.986679
195	1.94000000	-406.377716	1313.118652	408.456818	-382.881958	1333.549927	51.722069	-451.360168	1396.157715	220.840393	-309.567596	1295.103760	234.013702	-488.353424	999.585571	455.399078	-417.310516	1012.147095	-26.646654	-450.075790	756.009033	500.224335	-302.717987	792.628632	-76.541901	-278.341339	889.221680	364.606567	-287.729889	888.176880	50.580933	-510.271088	918.283203	275.848145	-517.491089	921.867310	167.377609	-513.881088	920.075256	221.612877	-506.047089	1089.561768	213.021255	-206.528046	1064.571777	216.221771	-277.280670	684.823853	453.880859	-179.945526	478.636261	363.385651	-161.478363	276.030151	411.624359	-127.452087	72.239029	321.882660	-176.394760	52.265224	265.383362	1.241515	73.186188	295.165985	-396.808868	648.659546	-23.233747	-411.318634	444.610260	91.565331	-485.105469	268.547028	39.473854	-593.391296	67.921570	131.785080	-641.966919	72.015938	179.223587	-463.013977	43.172966	166.902557
